<svg width="16" height="16" viewBox="0 0 16 16" fill="none" xmlns="http://www.w3.org/2000/svg">
<g id="Group 2575">
<g id="Group 2574">
<path id="Path 2615" d="M15.8609 8.74801C15.8588 8.4995 15.7582 8.26194 15.5813 8.08743C15.4043 7.91292 15.1654 7.81568 14.9169 7.81701H2.9359V1.76901C2.93775 1.53597 3.03197 1.31317 3.19788 1.1495C3.3638 0.98584 3.58786 0.894662 3.8209 0.895994H4.0569C4.24682 0.895563 4.43186 0.956197 4.58472 1.06891C4.73758 1.18162 4.85017 1.34044 4.9059 1.522C4.6467 1.59196 4.41757 1.74494 4.25358 1.95752C4.08959 2.17009 3.99978 2.43053 3.9979 2.699V3.048C3.99817 3.08648 4.006 3.12452 4.02097 3.15997C4.03594 3.19542 4.05774 3.22758 4.08513 3.25461C4.11253 3.28163 4.14498 3.30299 4.18063 3.31747C4.21627 3.33195 4.25443 3.33928 4.2929 3.33902H6.1819C6.2208 3.33995 6.25949 3.33312 6.29572 3.31894C6.33195 3.30475 6.36499 3.28349 6.39291 3.25641C6.42084 3.22932 6.44309 3.19694 6.45837 3.16116C6.47365 3.12538 6.48165 3.08691 6.4819 3.048V2.699C6.48014 2.41982 6.38313 2.14961 6.20693 1.93304C6.03073 1.71648 5.78589 1.56651 5.5129 1.50799C5.44808 1.17116 5.26759 0.867593 5.00263 0.649747C4.73767 0.431902 4.40492 0.313483 4.0619 0.315H3.8209C3.43261 0.312603 3.05923 0.464372 2.7827 0.736966C2.50616 1.00956 2.34908 1.38072 2.3459 1.76901V7.81701H1.6959C1.47216 7.81185 1.25407 7.88762 1.08174 8.03042C0.909405 8.17322 0.79442 8.37345 0.757922 8.59427C0.721424 8.81508 0.765868 9.04164 0.883081 9.2323C1.00029 9.42296 1.1824 9.5649 1.3959 9.63202V10.609C1.39635 11.0991 1.49448 11.5842 1.68455 12.0359C1.87462 12.4877 2.15282 12.897 2.5029 13.24C2.42189 13.3027 2.32902 13.3483 2.2299 13.374C1.989 13.4372 1.78295 13.5932 1.6569 13.808C1.59457 13.9133 1.55412 14.0301 1.53797 14.1514C1.52181 14.2727 1.5303 14.3961 1.5629 14.514C1.61849 14.713 1.73779 14.8882 1.90253 15.0128C2.06726 15.1375 2.26833 15.2046 2.4749 15.204C2.5573 15.2042 2.63935 15.1934 2.7189 15.172C3.29862 15.021 3.80987 14.6776 4.1689 14.198C4.49486 14.2866 4.83112 14.3317 5.1689 14.332H11.4249C11.7644 14.3321 12.1023 14.287 12.4299 14.198C12.7889 14.6776 13.3002 15.021 13.8799 15.172C13.9595 15.1934 14.0415 15.2042 14.1239 15.204C14.3305 15.2046 14.5315 15.1375 14.6963 15.0128C14.861 14.8882 14.9803 14.713 15.0359 14.514C15.0683 14.396 15.0766 14.2728 15.0605 14.1515C15.0444 14.0302 15.004 13.9134 14.9419 13.808C14.8794 13.7015 14.7966 13.6084 14.6981 13.5339C14.5996 13.4594 14.4874 13.4051 14.3679 13.374C14.2689 13.348 14.176 13.3025 14.0949 13.24C14.4475 12.8974 14.728 12.4876 14.9199 12.0349C15.1117 11.5822 15.211 11.0957 15.2119 10.604V9.62701C15.3995 9.56691 15.5632 9.44905 15.6798 9.29028C15.7964 9.13151 15.8598 8.93997 15.8609 8.74301V8.74801ZM5.8869 2.699V2.75702H4.5869V2.699C4.5869 2.52661 4.65539 2.36128 4.77729 2.23938C4.89918 2.11748 5.06451 2.04901 5.2369 2.04901C5.4093 2.04901 5.57463 2.11748 5.69652 2.23938C5.81842 2.36128 5.8869 2.52661 5.8869 2.699ZM2.5719 14.61C2.48127 14.6347 2.38454 14.6225 2.3029 14.576C2.26269 14.5534 2.22739 14.523 2.19906 14.4866C2.17073 14.4502 2.14994 14.4085 2.1379 14.364C2.12565 14.3198 2.12243 14.2735 2.12844 14.2279C2.13446 14.1824 2.14958 14.1386 2.1729 14.099C2.22016 14.0183 2.29748 13.9597 2.3879 13.936C2.60226 13.8797 2.79964 13.7719 2.9629 13.622C3.15991 13.7629 3.36985 13.8848 3.5899 13.986C3.31938 14.2897 2.96526 14.5067 2.5719 14.61ZM14.4399 14.099C14.463 14.1386 14.478 14.1825 14.484 14.228C14.49 14.2735 14.4869 14.3197 14.4749 14.364C14.4627 14.4085 14.4419 14.4501 14.4136 14.4865C14.3852 14.5229 14.35 14.5533 14.3099 14.576C14.2283 14.6225 14.1315 14.6347 14.0409 14.61C13.6476 14.5067 13.2934 14.2897 13.0229 13.986C13.2428 13.8846 13.4528 13.7627 13.6499 13.622C13.8132 13.7719 14.0105 13.8797 14.2249 13.936C14.3153 13.9597 14.3926 14.0183 14.4399 14.099ZM14.9169 9.099H9.6379C9.56073 9.099 9.48671 9.12966 9.43214 9.18423C9.37756 9.2388 9.3469 9.31283 9.3469 9.39001C9.3469 9.46719 9.37756 9.54119 9.43214 9.59576C9.48671 9.65033 9.56073 9.681 9.6379 9.681H14.6209V10.611C14.614 11.4499 14.2746 12.2518 13.6771 12.8407C13.0796 13.4296 12.2728 13.7573 11.4339 13.752H5.1779C4.33787 13.7571 3.53021 13.4283 2.93256 12.8379C2.33491 12.2476 1.99619 11.444 1.9909 10.604V9.67401H6.9819C7.05908 9.67401 7.1331 9.64335 7.18767 9.58877C7.24225 9.5342 7.2729 9.46017 7.2729 9.38299C7.2729 9.30581 7.24225 9.23182 7.18767 9.17724C7.1331 9.12267 7.05908 9.09201 6.9819 9.09201H1.6959C1.60308 9.09201 1.51406 9.05514 1.44842 8.9895C1.38278 8.92386 1.3459 8.83483 1.3459 8.742C1.3459 8.64918 1.38278 8.56017 1.44842 8.49453C1.51406 8.4289 1.60308 8.392 1.6959 8.392H14.9169C15.0097 8.392 15.0988 8.4289 15.1644 8.49453C15.23 8.56017 15.2669 8.64918 15.2669 8.742C15.2669 8.83483 15.23 8.92386 15.1644 8.9895C15.0988 9.05514 15.0097 9.09201 14.9169 9.09201V9.099Z" fill="#0A2C3D"/>
<path id="Path 2616" d="M8.30589 9.09702C8.22816 9.09733 8.1536 9.1278 8.09789 9.18201C8.07034 9.20867 8.04843 9.24061 8.03347 9.27591C8.01851 9.31121 8.0108 9.34917 8.0108 9.38751C8.0108 9.42585 8.01851 9.46381 8.03347 9.49911C8.04843 9.53442 8.07034 9.56635 8.09789 9.59302C8.15383 9.64709 8.22859 9.67731 8.30639 9.67731C8.38419 9.67731 8.45895 9.64709 8.51489 9.59302C8.54207 9.56614 8.56365 9.53415 8.57838 9.49887C8.59311 9.4636 8.60069 9.42574 8.60069 9.38751C8.60069 9.34929 8.59311 9.31143 8.57838 9.27615C8.56365 9.24088 8.54207 9.20888 8.51489 9.18201C8.45894 9.12756 8.38396 9.09707 8.30589 9.09702Z" fill="#0A2C3D"/>
<path id="Path 2617" d="M12.7619 2.845C12.8008 2.84593 12.8395 2.8391 12.8757 2.82492C12.912 2.81074 12.945 2.78951 12.9729 2.76242C13.0009 2.73533 13.0231 2.70292 13.0384 2.66714C13.0537 2.63136 13.0617 2.59292 13.0619 2.55402V2.17599C13.0492 2.10706 13.0127 2.04478 12.9588 1.99994C12.9049 1.9551 12.837 1.93054 12.7669 1.93054C12.6968 1.93054 12.6289 1.9551 12.575 1.99994C12.5212 2.04478 12.4847 2.10706 12.4719 2.17599V2.55402C12.4724 2.63086 12.5031 2.70442 12.5574 2.75885C12.6116 2.81328 12.6851 2.84422 12.7619 2.845Z" fill="#0A2C3D"/>
<path id="Path 2618" d="M12.7619 4.85101C12.8008 4.85194 12.8395 4.84511 12.8757 4.83093C12.912 4.81675 12.945 4.79549 12.9729 4.7684C13.0009 4.74131 13.0231 4.70894 13.0384 4.67316C13.0537 4.63738 13.0617 4.5989 13.0619 4.56V4.19302C13.0492 4.12409 13.0127 4.06178 12.9588 4.01694C12.9049 3.9721 12.837 3.94754 12.7669 3.94754C12.6968 3.94754 12.6289 3.9721 12.575 4.01694C12.5212 4.06178 12.4847 4.12409 12.4719 4.19302V4.56C12.4724 4.63684 12.5031 4.71043 12.5574 4.76486C12.6116 4.81929 12.6851 4.85023 12.7619 4.85101Z" fill="#0A2C3D"/>
<path id="Path 2619" d="M13.5889 3.659H13.9719C14.0101 3.659 14.048 3.6515 14.0833 3.63687C14.1186 3.62225 14.1507 3.60081 14.1777 3.57379C14.2047 3.54677 14.2261 3.51468 14.2408 3.47937C14.2554 3.44406 14.2629 3.40623 14.2629 3.36801C14.2629 3.3298 14.2554 3.29196 14.2408 3.25665C14.2261 3.22135 14.2047 3.18925 14.1777 3.16223C14.1507 3.13521 14.1186 3.11378 14.0833 3.09915C14.048 3.08453 14.0101 3.077 13.9719 3.077H13.5889C13.5507 3.077 13.5129 3.08453 13.4776 3.09915C13.4422 3.11378 13.4102 3.13521 13.3831 3.16223C13.3561 3.18925 13.3347 3.22135 13.3201 3.25665C13.3054 3.29196 13.2979 3.3298 13.2979 3.36801C13.2979 3.40623 13.3054 3.44406 13.3201 3.47937C13.3347 3.51468 13.3561 3.54677 13.3831 3.57379C13.4102 3.60081 13.4422 3.62225 13.4776 3.63687C13.5129 3.6515 13.5507 3.659 13.5889 3.659Z" fill="#0A2C3D"/>
<path id="Path 2620" d="M11.5519 3.659H11.9359C11.9741 3.659 12.012 3.6515 12.0473 3.63687C12.0826 3.62225 12.1147 3.60081 12.1417 3.57379C12.1687 3.54677 12.1902 3.51468 12.2048 3.47937C12.2194 3.44406 12.2269 3.40623 12.2269 3.36801C12.2269 3.3298 12.2194 3.29196 12.2048 3.25665C12.1902 3.22135 12.1687 3.18925 12.1417 3.16223C12.1147 3.13521 12.0826 3.11378 12.0473 3.09915C12.012 3.08453 11.9741 3.077 11.9359 3.077H11.5519C11.5137 3.077 11.4759 3.08453 11.4406 3.09915C11.4053 3.11378 11.3732 3.13521 11.3462 3.16223C11.3191 3.18925 11.2977 3.22135 11.2831 3.25665C11.2685 3.29196 11.2609 3.3298 11.2609 3.36801C11.2609 3.40623 11.2685 3.44406 11.2831 3.47937C11.2977 3.51468 11.3191 3.54677 11.3462 3.57379C11.3732 3.60081 11.4053 3.62225 11.4406 3.63687C11.4759 3.6515 11.5137 3.659 11.5519 3.659Z" fill="#0A2C3D"/>
<path id="Path 2621" d="M8.3099 4.64801C8.34879 4.64894 8.38748 4.64211 8.42371 4.62793C8.45994 4.61375 8.49298 4.59249 8.52091 4.5654C8.54883 4.53831 8.57108 4.50593 8.58636 4.47015C8.60164 4.43437 8.60964 4.39593 8.6099 4.35703V3.979C8.59715 3.91007 8.56067 3.84779 8.50678 3.80295C8.45289 3.75811 8.385 3.73355 8.3149 3.73355C8.24479 3.73355 8.1769 3.75811 8.12302 3.80295C8.06913 3.84779 8.03264 3.91007 8.0199 3.979V4.35703C8.02042 4.43387 8.05111 4.50743 8.10535 4.56186C8.1596 4.61629 8.23306 4.64723 8.3099 4.64801Z" fill="#0A2C3D"/>
<path id="Path 2622" d="M8.3099 6.65402C8.34879 6.65495 8.38748 6.64812 8.42371 6.63394C8.45994 6.61976 8.49298 6.5985 8.52091 6.57141C8.54883 6.54432 8.57108 6.51195 8.58636 6.47617C8.60164 6.44039 8.60964 6.40191 8.6099 6.36301V5.996C8.59715 5.92707 8.56067 5.86478 8.50678 5.81995C8.45289 5.77511 8.385 5.75055 8.3149 5.75055C8.24479 5.75055 8.1769 5.77511 8.12302 5.81995C8.06913 5.86478 8.03264 5.92707 8.0199 5.996V6.36301C8.02042 6.43985 8.05111 6.51341 8.10535 6.56784C8.1596 6.62227 8.23306 6.65324 8.3099 6.65402Z" fill="#0A2C3D"/>
<path id="Path 2623" d="M9.13591 5.46201H9.51991C9.59709 5.46201 9.6711 5.43134 9.72568 5.37677C9.78025 5.3222 9.81091 5.2482 9.81091 5.17102C9.81091 5.09384 9.78025 5.01981 9.72568 4.96524C9.6711 4.91067 9.59709 4.88 9.51991 4.88H9.13591C9.05873 4.88 8.98471 4.91067 8.93014 4.96524C8.87557 5.01981 8.84491 5.09384 8.84491 5.17102C8.84491 5.2482 8.87557 5.3222 8.93014 5.37677C8.98471 5.43134 9.05873 5.46201 9.13591 5.46201Z" fill="#0A2C3D"/>
<path id="Path 2624" d="M7.0999 5.46201H7.4839C7.56108 5.46201 7.63509 5.43134 7.68967 5.37677C7.74424 5.3222 7.7749 5.2482 7.7749 5.17102C7.7749 5.09384 7.74424 5.01981 7.68967 4.96524C7.63509 4.91067 7.56108 4.88 7.4839 4.88H7.0999C7.02272 4.88 6.9487 4.91067 6.89413 4.96524C6.83956 5.01981 6.8089 5.09384 6.8089 5.17102C6.8089 5.2482 6.83956 5.3222 6.89413 5.37677C6.9487 5.43134 7.02272 5.46201 7.0999 5.46201Z" fill="#0A2C3D"/>
</g>
</g>
</svg>
